 <svg id="icon"   xmlns="http://www.w3.org/2000/svg" viewBox="0 0 24 24">
  <path fill="currentColor" fill-rule="evenodd" clip-rule="evenodd" d="M8.43028 8.77358C8.42332 8.70615 8.39693 8.61759 8.34783 8.58156C7.89182 8.24746 7.56885 7.79891 7.25821 7.33949C7.12298 7.13952 7.07705 7.13036 6.87941 7.27634C6.73499 7.38307 6.589 7.4877 6.43426 7.59861L6.43415 7.59868L6.43403 7.59877L6.43378 7.59894L6.43365 7.59904C6.36791 7.64615 6.30059 7.6944 6.23113 7.74443C6.03398 6.45558 6.20902 5.25932 6.79146 4.09104C6.83583 4.1537 6.879 4.21439 6.92126 4.2738L6.92138 4.27396L6.92151 4.27414C7.01493 4.40547 7.10388 4.53052 7.19139 4.65661C7.32014 4.84204 7.36583 4.84839 7.5388 4.71732C7.9893 4.37627 8.45434 4.06135 9.00331 3.89315C9.05522 3.87727 9.11483 3.81619 9.13047 3.76391C9.29232 3.22325 9.60394 2.76749 9.93657 2.32383C10.085 2.12594 10.0845 2.09283 9.87549 1.94625C9.75571 1.86232 9.63638 1.77771 9.50941 1.68768L9.50872 1.68719L9.50868 1.68716L9.32506 1.55707C10.4921 0.974877 11.6894 0.796043 12.9788 0.995155C12.9268 1.06747 12.8765 1.13781 12.8272 1.20673L12.8265 1.2076L12.8262 1.20812C12.7183 1.35886 12.6153 1.50278 12.5105 1.64551C12.365 1.84364 12.3728 1.88859 12.5751 2.02467C13.0397 2.33739 13.4924 2.66305 13.8254 3.12651C13.8543 3.16682 13.9269 3.19968 13.9773 3.19736C14.552 3.16987 15.0947 3.31939 15.6346 3.48613C15.8453 3.55111 15.8828 3.53328 15.9433 3.31694C15.9835 3.17325 16.0231 3.02935 16.0652 2.8766L16.136 2.61944C17.0319 3.53218 17.5673 4.58979 17.7791 5.85153L17.5396 5.7664L17.5393 5.76628C17.4078 5.71948 17.2822 5.67479 17.1564 5.63043C16.9441 5.55518 16.9093 5.57582 16.8423 5.78642C16.6711 6.325 16.4706 6.84977 16.1234 7.30602C16.0925 7.34657 16.0757 7.42341 16.0916 7.46995C16.2339 7.88711 16.2689 8.31514 16.2731 8.74634C17.0589 8.80522 17.6923 9.01814 18.2116 9.45753C19.2629 7.01419 18.8137 4.04572 16.849 2.04471C14.2097 -0.643425 9.93241 -0.686545 7.25051 1.94796C5.34674 3.81814 4.79044 6.54842 5.58921 8.92615C6.49865 9.01142 7.47845 9.08886 8.44274 9.1387C8.4399 9.08853 8.43942 9.03789 8.43893 8.9872C8.43825 8.91571 8.43757 8.84413 8.43028 8.77358ZM13.2031 4.92953C13.142 4.80774 13.0551 4.7612 12.9227 4.78319C12.1579 4.90998 11.3931 5.03629 10.6278 5.16016C10.489 5.18263 10.4168 5.25532 10.3944 5.39457C10.2716 6.15486 10.146 6.91478 10.0192 7.67458C9.99638 7.8114 10.0352 7.90399 10.1651 7.9691C10.8436 8.30918 11.5204 8.65316 12.1965 8.99825C12.3363 9.06959 12.4494 9.05493 12.5619 8.93864C12.7485 8.74568 12.939 8.55643 13.1295 8.36715L13.1295 8.36714L13.1296 8.36712L13.1296 8.36711L13.1296 8.3671L13.1296 8.36708C13.2071 8.29013 13.2845 8.21317 13.3617 8.13596L13.3611 8.13535C13.4382 8.05827 13.5151 7.98098 13.5919 7.90369L13.592 7.90364L13.592 7.90359L13.5921 7.90353L13.5921 7.90348L13.5922 7.90343C13.7852 7.70939 13.9781 7.51538 14.1744 7.32473C14.2841 7.21821 14.3084 7.11255 14.238 6.97452C13.8905 6.29412 13.5456 5.61249 13.2031 4.92953ZM23.2427 13.9502C23.3883 13.9714 23.592 14.1611 23.6228 14.3046C24.0351 16.1903 24.3014 18.0989 23.3678 19.8981C23.0838 20.4444 22.6735 20.9262 22.2642 21.4068C22.11 21.5879 21.9559 21.7688 21.8088 21.9529C21.5271 22.3069 21.1846 22.2779 20.7831 22.1123C20.2803 21.9046 19.7781 21.6952 19.2759 21.4858L19.2758 21.4858C17.4684 20.7322 15.6606 19.9785 13.8241 19.3028C12.8879 18.9582 11.9245 18.6894 10.9607 18.4205L10.9606 18.4205L10.9606 18.4205L10.9606 18.4205L10.9606 18.4205C10.2705 18.2279 9.58011 18.0353 8.89941 17.8148C5.69323 16.7757 2.77337 15.2433 0.384395 12.796C-0.0972597 12.3024 -0.100191 11.8925 0.230725 11.3472C0.772968 10.4531 1.51249 10.0462 2.56949 10.2034C4.23482 10.4512 5.90199 10.6723 7.57538 10.7948C7.57721 10.8087 7.57917 10.8228 7.5832 10.8366L8.29731 13.2594C8.34044 13.4057 8.49533 13.49 8.64155 13.447L8.99188 13.3438C9.1381 13.3005 9.22239 13.1458 9.17939 12.9994L8.54688 10.8537C8.95133 10.8733 9.35615 10.8862 9.76134 10.8917L10.4592 13.2594C10.5023 13.4057 10.6572 13.49 10.8034 13.447L11.1538 13.3438C11.3 13.3005 11.3844 13.1458 11.3413 12.9994L10.7195 10.8898C11.1155 10.8829 11.5121 10.8681 11.9092 10.8441L12.6212 13.2594C12.6642 13.4057 12.8192 13.49 12.9654 13.447L13.3157 13.3438C13.4619 13.3005 13.5463 13.1458 13.5032 12.9994L12.9028 10.9624L13.6616 11.1239L13.6649 11.1202C13.6745 11.1101 13.6916 11.1074 13.7082 11.1048L13.7194 11.1029L13.7249 11.1018C13.9562 11.0445 14.1974 10.9584 14.4386 10.8724L14.4387 10.8724C14.9907 10.6754 15.5426 10.4785 15.9756 10.6273C16.3857 10.7683 16.6743 11.255 16.9646 11.7446C17.0996 11.9724 17.2351 12.2008 17.3833 12.3954C17.5179 12.5721 17.6499 12.7516 17.7819 12.9311L17.782 12.9312C18.1528 13.4355 18.524 13.9403 18.9558 14.3858C20.0072 15.4712 21.1754 15.4494 22.3507 14.4183C19.9936 14.951 19.6218 14.8469 18.6691 13.3253C19.0054 13.3702 19.3391 13.4144 19.6707 13.4583C20.8807 13.6185 22.063 13.775 23.2427 13.9502ZM18.0387 22.8167C18.4062 23.1547 18.9971 23.3843 19.4983 23.3912C19.6758 23.3938 19.8569 23.1361 20.0562 22.8524L20.0562 22.8523C20.1518 22.7164 20.2515 22.5744 20.357 22.4523L18.0236 21.5065C18.0208 21.6788 18 21.8586 17.9802 22.029C17.9395 22.3801 17.9034 22.6916 18.0387 22.8167ZM16.9398 22.3439C16.4401 22.3419 15.8502 22.1183 15.4801 21.7854C15.3469 21.6658 15.3837 21.357 15.4258 21.0042C15.4465 20.8307 15.4685 20.6466 15.4722 20.4691L17.7992 21.4121C17.6938 21.5332 17.5945 21.6735 17.4994 21.808L17.4993 21.808L17.4993 21.808C17.3003 22.0893 17.1195 22.3447 16.9398 22.3439ZM2.79167 16.5244C3.32939 16.7726 3.51226 16.4749 3.71174 16.0318C2.99286 15.5292 2.32797 15.0638 1.656 14.5932C1.2353 15.6762 1.36319 15.8636 2.79167 16.5244ZM7.52651 17.8483C7.06843 18.5334 6.58775 18.5209 5.39955 17.833C4.99669 17.5992 4.86366 17.2698 5.11225 16.8699L7.52651 17.8483Z"/>
</svg>
