 <svg id="icon"   xmlns="http://www.w3.org/2000/svg" viewBox="0 0 24 24">
    <path fill="currentColor" fill-rule="evenodd" clip-rule="evenodd" d="M11.8491 17.6802L8.61322 19.4584C9.937 20.2368 12.5743 21.2977 14.9753 19.3234L11.8491 17.6802ZM12.9428 16.7343L23.6401 22.3577C23.9691 22.5306 24.0955 22.9376 23.9226 23.2666C23.7497 23.5957 23.3433 23.7225 23.0137 23.5492L16.2465 19.9917C14.9975 21.1872 13.538 21.7971 11.948 21.7971C11.3067 21.7971 10.6443 21.6982 9.96588 21.4991C8.74758 21.1415 7.77793 20.5446 7.27512 20.1936L0.99727 23.6434C0.89448 23.6999 0.78337 23.7267 0.673728 23.7267C0.436212 23.7267 0.205792 23.6007 0.083302 23.3776C-0.0957226 23.0519 0.0233416 22.6427 0.349086 22.4638L10.7867 16.7281L10.7816 0.704516C10.7879 0.312816 11.2784 -0.00424 11.8713 4.28858e-05C12.4643 0.00444814 12.9441 0.328357 12.9376 0.720057L12.9428 16.7343ZM18.4337 6.50612C17.9031 6.50612 17.3676 6.35365 16.9735 5.88547C16.1154 4.86615 14.1519 6.05361 14.1321 6.06572L13.8976 6.28476L13.8298 1.27721L13.869 1.21945C13.8844 1.19682 14.2553 0.662067 15.0106 0.526238C15.6786 0.406195 16.4186 0.630741 17.211 1.19376C17.7954 1.60907 18.3576 1.76668 18.8817 1.66255C19.6834 1.5031 20.1407 0.787861 20.1451 0.780519L20.5812 0.0857128L20.5179 5.90958L20.3977 5.97443C20.3371 6.00698 19.3934 6.50612 18.4337 6.50612Z"/>
</svg>
