 <svg id="icon"   xmlns="http://www.w3.org/2000/svg" viewBox="0 0 24 24">
  <path fill="currentColor" fill-rule="evenodd" clip-rule="evenodd" d="M14.726 5.48334C15.0822 5.48478 15.404 5.27107 15.5409 4.94222C15.6777 4.61336 15.6026 4.23441 15.3505 3.98271C15.0985 3.731 14.7194 3.65634 14.3908 3.79366C14.0621 3.93098 13.8488 4.25311 13.8507 4.60931C13.8504 4.84142 13.9426 5.0641 14.1068 5.22811C14.2711 5.39213 14.4939 5.48397 14.726 5.48334ZM4.41041 4.94444C4.27265 5.27292 3.95022 5.48576 3.59403 5.48334C3.36192 5.48334 3.13936 5.39089 2.97557 5.22643C2.81178 5.06196 2.72024 4.83903 2.72119 4.60692C2.72023 4.25072 2.93439 3.92917 3.26343 3.79275C3.59247 3.65633 3.97132 3.73203 4.22268 3.98442C4.47403 4.23681 4.54818 4.61596 4.41041 4.94444ZM14.6018 16.4454C14.7279 16.3799 14.7532 16.3863 14.8156 16.5171C14.8591 16.6082 14.9025 16.6995 14.9486 16.7966L14.9492 16.7979L14.9503 16.8001L14.9505 16.8005L14.998 16.9007C15.4755 16.2308 15.713 15.5065 15.7206 14.6841L15.5788 14.7647C15.4875 14.8166 15.4018 14.8653 15.3159 14.9136C15.19 14.9845 15.1649 14.9755 15.0986 14.8501C14.9289 14.5289 14.7501 14.2141 14.4763 13.9653C14.4523 13.9433 14.4343 13.8956 14.4395 13.8639C14.4988 13.5018 14.441 13.1478 14.372 12.7945C14.3418 12.6407 14.3587 12.6166 14.5149 12.5927C14.6289 12.5753 14.7425 12.5564 14.8617 12.5367L15.0236 12.5099C14.5279 11.8331 13.9021 11.37 13.1068 11.1041L13.1316 11.2497L13.1316 11.2498L13.1317 11.2503C13.1483 11.3478 13.164 11.4396 13.1801 11.5313C13.2085 11.693 13.1937 11.7083 13.0361 11.7308C12.6832 11.7813 12.3342 11.8469 12.0148 12.0191C11.984 12.0357 11.9291 12.0363 11.8983 12.02C11.5722 11.8469 11.2175 11.7786 10.8576 11.7288C10.7194 11.7097 10.7015 11.6862 10.7272 11.5432C10.7446 11.4469 10.7609 11.3505 10.778 11.2492L10.8026 11.1042C10.0065 11.3707 9.38302 11.835 8.88656 12.5107L9.04709 12.5371C9.1672 12.5569 9.28055 12.5756 9.39416 12.5926C9.55049 12.616 9.56714 12.6412 9.5377 12.7936C9.47012 13.1438 9.4129 13.4946 9.46836 13.8538C9.47442 13.8924 9.44608 13.9449 9.41863 13.9786C9.38999 14.0138 9.35779 14.0465 9.32565 14.079C9.28012 14.1252 9.2347 14.1713 9.19967 14.2243C9.07004 14.4208 8.94979 14.6234 8.82966 14.8258L8.79924 14.877C8.74841 14.9626 8.71489 14.9791 8.62846 14.9326C8.57587 14.9043 8.5242 14.8745 8.47252 14.8447C8.44575 14.8292 8.41898 14.8138 8.39208 14.7985C8.34881 14.774 8.30538 14.7497 8.25977 14.7241L8.19781 14.6894C8.12946 15.295 8.55448 16.5774 8.91963 16.8862L9.0107 16.6924L9.03837 16.6326C9.05894 16.5879 9.0795 16.5432 9.10122 16.4992C9.15392 16.3922 9.18622 16.3843 9.28986 16.4371C9.61896 16.6053 9.95302 16.7599 10.3253 16.8092C10.3576 16.8135 10.4001 16.8411 10.4142 16.8695C10.5785 17.2011 10.8326 17.4592 11.0942 17.7115C11.1984 17.8118 11.1994 17.8362 11.0998 17.9378C11.0265 18.0123 10.9541 18.0877 10.8786 18.1664L10.782 18.2668C11.5667 18.5178 12.3436 18.519 13.1264 18.2666C13.0912 18.23 13.0571 18.1942 13.0235 18.159C12.9532 18.0853 12.8855 18.0142 12.8163 17.9447C12.7098 17.8378 12.7102 17.8128 12.8152 17.7116C13.0768 17.4595 13.3317 17.2018 13.4949 16.8694C13.5088 16.8411 13.5514 16.8137 13.5838 16.8093C13.9493 16.7597 14.2791 16.6123 14.6018 16.4454ZM11.9857 10.3386C14.4032 10.3601 16.3283 12.3246 16.3062 14.7469C16.289 16.6175 15.057 18.2202 13.3754 18.8043C14.1445 18.8547 14.6576 18.9453 14.6576 19.049C14.6576 19.2074 13.4546 19.336 11.9705 19.336C10.4865 19.336 9.28357 19.2074 9.28357 19.049C9.28357 18.946 9.7915 18.8558 10.554 18.8051C8.82118 18.2156 7.58823 16.5819 7.60399 14.6561C7.62373 12.2536 9.58897 10.3172 11.9857 10.3386ZM13.377 14.3086C12.9716 14.0184 12.5663 13.7281 12.162 13.4365C12.0887 13.3835 12.023 13.3838 11.9494 13.4369C11.5478 13.7268 11.1453 14.0152 10.7422 14.303C10.6694 14.3549 10.6451 14.4146 10.6745 14.5033C10.8284 14.9665 10.9797 15.4306 11.1302 15.8949C11.1614 15.9909 11.2195 16.0357 11.3234 16.0339C11.4956 16.0311 11.6679 16.0317 11.8403 16.0322C11.9109 16.0325 11.9815 16.0327 12.0521 16.0327V16.0322C12.1221 16.0322 12.1921 16.032 12.2621 16.0318L12.2631 16.0318H12.2631H12.2631H12.2631H12.2631H12.2631H12.2632H12.2632H12.2632H12.2632C12.439 16.0313 12.6147 16.0308 12.7906 16.0334C12.8888 16.0347 12.9478 15.9978 12.9786 15.9029C13.13 15.4357 13.283 14.9688 13.438 14.5026C13.4656 14.4194 13.4472 14.3587 13.377 14.3086ZM10.1493 7.03558C10.1437 7.09635 10.1437 7.15749 10.1493 7.21826V9.52155C9.41758 9.75563 8.74146 10.1368 8.16239 10.6415V7.14543C8.15668 7.07847 8.1451 7.01214 8.12776 6.94722L8.0406 6.96513V7.18722V8.7502C8.04719 8.85445 8.0104 8.95679 7.93895 9.03299C7.8675 9.10919 7.76774 9.15247 7.66328 9.15259C7.56292 9.15981 7.46398 9.12558 7.38953 9.0579C7.31508 8.99021 7.27161 8.89498 7.26925 8.79438C7.25851 7.96453 7.25134 7.13468 7.26925 6.30602C7.2767 6.11417 7.36022 5.93317 7.50136 5.803C7.64251 5.67284 7.82966 5.60422 8.02149 5.61229C8.77532 5.60752 9.52915 5.60752 10.283 5.61229C10.4851 5.60704 10.6806 5.68469 10.824 5.82722C10.9675 5.96975 11.0464 6.16475 11.0424 6.36692C11.0464 6.89229 11.045 7.41767 11.0437 7.94304L11.0437 7.94417C11.043 8.20648 11.0424 8.46879 11.0424 8.7311C11.0566 8.87842 10.986 9.02104 10.8602 9.0991C10.7345 9.17717 10.5754 9.17717 10.4496 9.0991C10.3239 9.02104 10.2533 8.87842 10.2675 8.7311V7.18841V6.96871L10.2173 6.94961C10.2098 6.95857 10.201 6.96717 10.1921 6.97576C10.1727 6.99464 10.1534 7.01342 10.1493 7.03558ZM15.7158 7.21826C15.7102 7.1571 15.7102 7.09555 15.7158 7.03438C15.7199 7.01222 15.7393 6.99345 15.7587 6.97457C15.7675 6.96598 15.7764 6.95737 15.7839 6.94841L15.834 6.96752V7.18722V8.72991C15.8198 8.87723 15.8904 9.01985 16.0162 9.09791C16.1419 9.17597 16.3011 9.17597 16.4268 9.09791C16.5525 9.01985 16.6231 8.87723 16.609 8.72991C16.609 8.46722 16.6096 8.20453 16.6103 7.94185V7.94128C16.6116 7.4161 16.6129 6.89091 16.609 6.36573C16.6129 6.16377 16.5342 5.96896 16.391 5.82647C16.2479 5.68398 16.0527 5.60617 15.8507 5.6111C15.0969 5.60632 14.3431 5.60632 13.5893 5.6111C13.3974 5.60302 13.2103 5.67164 13.0691 5.80181C12.928 5.93197 12.8445 6.11297 12.837 6.30483C12.8191 7.13349 12.8263 7.96334 12.837 8.79319C12.8394 8.89378 12.8828 8.98902 12.9573 9.0567C13.0317 9.12439 13.1307 9.15861 13.231 9.1514C13.3352 9.15219 13.4352 9.10999 13.5072 9.03474C13.5793 8.95949 13.6172 8.85786 13.6119 8.75379V7.1908V6.96871L13.6991 6.9508C13.7164 7.01573 13.728 7.08205 13.7337 7.14901V9.56214C14.4698 9.81903 15.1447 10.2256 15.7158 10.7562V7.21826ZM4.58269 12.8111C4.59122 12.9923 4.50654 13.1652 4.35821 13.2696L6.47284 13.2648C6.44577 13.354 6.42109 13.4443 6.39881 13.5359H0.013134V13.2648H2.82627C2.67143 13.1719 2.58226 12.9995 2.59582 12.8195V10.6404V7.14423C2.5901 7.07728 2.57851 7.01095 2.56119 6.94602L2.47403 6.96394V7.18602V8.74901C2.48062 8.85326 2.44384 8.9556 2.37239 9.0318C2.30094 9.10799 2.20117 9.15128 2.09672 9.1514C1.99635 9.15861 1.89742 9.12439 1.82296 9.0567C1.74851 8.98902 1.70504 8.89378 1.70269 8.79319C1.69194 7.96334 1.68478 7.13349 1.70269 6.30483C1.71013 6.11297 1.79365 5.93197 1.93479 5.80181C2.07594 5.67164 2.26309 5.60302 2.45493 5.6111C3.20876 5.60632 3.96259 5.60632 4.71642 5.6111C4.91856 5.60584 5.11405 5.6835 5.25748 5.82603C5.40091 5.96856 5.4798 6.16356 5.47582 6.36573C5.4798 6.89105 5.47847 7.41638 5.47715 7.9417V7.94185C5.47648 8.20453 5.47582 8.46722 5.47582 8.72991C5.49 8.87723 5.41941 9.01985 5.29367 9.09791C5.16792 9.17597 5.00879 9.17597 4.88305 9.09791C4.75731 9.01985 4.68671 8.87723 4.7009 8.72991V7.18722V6.96752L4.65075 6.94841C4.64328 6.95737 4.63441 6.96598 4.62557 6.97457C4.60613 6.99345 4.58679 7.01222 4.58269 7.03438C4.57706 7.09555 4.57706 7.1571 4.58269 7.21826V12.8111ZM21.0555 13.2696H23.8937V13.5359H17.366C17.3437 13.4443 17.319 13.354 17.2919 13.2648H19.5236C19.3687 13.1719 19.2796 12.9995 19.2931 12.8195V10.6404V7.14423C19.2874 7.07728 19.2758 7.01095 19.2585 6.94602L19.1713 6.96394V7.18602V8.74901C19.1779 8.85326 19.1411 8.9556 19.0697 9.0318C18.9983 9.10799 18.8985 9.15128 18.794 9.1514C18.6937 9.15861 18.5947 9.12439 18.5203 9.0567C18.4458 8.98902 18.4024 8.89378 18.4 8.79319C18.3893 7.96334 18.3821 7.13349 18.4 6.30483C18.4074 6.11297 18.491 5.93197 18.6321 5.80181C18.7733 5.67164 18.9604 5.60302 19.1522 5.6111C19.9061 5.60632 20.6599 5.60632 21.4137 5.6111C21.6159 5.60584 21.8114 5.6835 21.9548 5.82603C22.0982 5.96856 22.1771 6.16356 22.1731 6.36573C22.1771 6.8911 22.1758 7.41647 22.1745 7.94185C22.1738 8.20453 22.1731 8.46722 22.1731 8.72991C22.1873 8.87723 22.1167 9.01985 21.991 9.09791C21.8652 9.17597 21.7061 9.17597 21.5804 9.09791C21.4546 9.01985 21.384 8.87723 21.3982 8.72991V7.18722V6.96752L21.3481 6.94841C21.3406 6.95737 21.3317 6.96598 21.3229 6.97456C21.3034 6.99345 21.2841 7.01222 21.28 7.03438C21.2744 7.09555 21.2744 7.1571 21.28 7.21826V12.8111C21.2885 12.9923 21.2039 13.1652 21.0555 13.2696ZM9.97579 4.94444C9.83802 5.27292 9.5156 5.48576 9.1594 5.48334C8.92729 5.48334 8.70474 5.39089 8.54094 5.22643C8.37715 5.06196 8.28561 4.83903 8.28657 4.60692C8.28561 4.25072 8.49976 3.92917 8.8288 3.79275C9.15785 3.65633 9.53669 3.73203 9.78805 3.98442C10.0394 4.23681 10.1136 4.61596 9.97579 4.94444ZM21.1089 4.94444C20.9712 5.27292 20.6487 5.48576 20.2925 5.48334C20.0604 5.48334 19.8379 5.39089 19.6741 5.22643C19.5103 5.06196 19.4187 4.83903 19.4197 4.60692C19.4187 4.25072 19.6329 3.92917 19.9619 3.79275C20.291 3.65633 20.6698 3.73203 20.9212 3.98442C21.1725 4.23681 21.2467 4.61596 21.1089 4.94444Z"/>
</svg>
