 <svg id="icon"   xmlns="http://www.w3.org/2000/svg" viewBox="0 0 24 24">
  <path fill="currentColor" fill-rule="evenodd" clip-rule="evenodd" d="M8.76491 21.8653C10.822 22.5233 12.8596 22.5574 14.9099 21.9616L16.555 23.1075C15.1399 23.6922 13.5938 24.0111 11.9806 23.9994C5.28909 23.9511 -0.0541064 18.558 0.000413534 11.9074C0.0549335 5.28189 5.4747 -0.0583992 12.0847 0.000482276C18.7514 0.0599696 24.0607 5.47743 23.9995 12.1582C23.984 13.8568 23.6045 15.4754 22.9379 16.9403L21.7178 15.6397C22.1515 14.4949 22.3727 13.2843 22.3847 11.9847C22.2615 12.0546 22.1431 12.122 22.028 12.1874C21.7633 12.3379 21.5162 12.4784 21.2684 12.6178C20.9214 12.813 20.8519 12.7884 20.6693 12.4428C20.2014 11.5566 19.7082 10.6886 18.9531 10.0023C18.8868 9.94213 18.8372 9.80995 18.8515 9.72284C19.0151 8.72427 18.8556 7.74813 18.6652 6.77367C18.5824 6.34927 18.6288 6.28312 19.0597 6.21721C19.3712 6.16947 19.6821 6.1179 20.0079 6.06387C20.1559 6.03932 20.3069 6.01426 20.4625 5.98883C19.0952 4.12231 17.3696 2.84533 15.1762 2.11174C15.1997 2.24906 15.2222 2.38107 15.244 2.50945C15.2901 2.78055 15.3335 3.03546 15.3783 3.29009C15.4567 3.7357 15.4159 3.77799 14.9814 3.84014C14.0082 3.97922 13.0456 4.15999 12.1648 4.63516C12.0797 4.68108 11.9283 4.6829 11.8434 4.63783C10.9441 4.16011 9.96581 3.97183 8.9733 3.83481C8.59203 3.7821 8.54259 3.71692 8.61383 3.3228C8.66211 3.05554 8.7073 2.78776 8.75478 2.50638C8.77641 2.37819 8.79852 2.24717 8.82162 2.1121C6.62616 2.84691 4.9066 4.12752 3.53754 5.99101C3.69639 6.01676 3.84972 6.04205 3.99932 6.06672C4.32346 6.12018 4.63008 6.17075 4.93737 6.21684C5.36857 6.28154 5.41461 6.35072 5.33331 6.77101C5.14661 7.73686 4.98911 8.70416 5.14213 9.69485C5.1586 9.80159 5.08046 9.94588 5.00474 10.0391C4.92577 10.1362 4.83697 10.2264 4.74832 10.3163C4.62289 10.4436 4.49775 10.5706 4.40114 10.7169C4.0456 11.2553 3.71574 11.811 3.38614 12.3662C3.35633 12.4164 3.32652 12.4666 3.29669 12.5168C3.15627 12.7529 3.06395 12.7982 2.82576 12.6703C2.6824 12.5932 2.54136 12.5118 2.40036 12.4304C2.32495 12.3869 2.24955 12.3434 2.17382 12.3005C2.0504 12.2306 1.92667 12.1613 1.79626 12.0882C1.74463 12.0592 1.69195 12.0297 1.63783 11.9993C1.44967 13.6697 2.62161 17.2062 3.62877 18.0577C3.64911 18.0144 3.66936 17.9714 3.68953 17.9284C3.75348 17.7924 3.81669 17.6579 3.87969 17.5233C3.9075 17.464 3.9349 17.4045 3.9623 17.3451C4.01703 17.2263 4.07174 17.1076 4.12963 16.9903C4.2749 16.6955 4.36395 16.6735 4.64963 16.8195C5.55733 17.2834 6.47847 17.7094 7.50563 17.8456C7.5948 17.8575 7.71159 17.9334 7.75048 18.0118C8.20348 18.9264 8.90449 19.6382 9.62597 20.3336C9.91347 20.6108 9.91589 20.6777 9.64099 20.9578C9.44236 21.1601 9.24601 21.3646 9.04146 21.5776C8.95117 21.6717 8.85929 21.7674 8.76491 21.8653ZM11.4075 15.4223C11.6011 15.4229 11.7947 15.4236 11.9883 15.4236V15.422C12.3278 15.422 12.3643 15.4204 12.4008 15.42C12.4373 15.4196 12.4738 15.4204 12.813 15.4254C13.0842 15.4293 13.2471 15.3272 13.3318 15.0658C13.5417 14.4182 14.0585 13.771 14.5751 13.1241C15.0866 12.4835 15.5978 11.8434 15.8103 11.2036C15.8864 10.9744 15.8357 10.8071 15.6421 10.6687C14.5242 9.86847 13.4066 9.06799 12.2917 8.26352C12.0895 8.11765 11.9079 8.11838 11.7052 8.26473C10.5976 9.06424 9.48719 9.85974 8.37559 10.6533C8.1752 10.7964 8.10796 10.9612 8.18913 11.2057C8.61366 12.483 9.03056 13.763 9.446 15.0434C9.53178 15.3082 9.69182 15.4318 9.97884 15.4271C10.455 15.4192 10.9312 15.4207 11.4075 15.4223Z"/>
  <path fill="currentColor" fill-rule="evenodd" clip-rule="evenodd" d="M17.1995 10.4868C13.4881 10.4868 10.4795 13.4955 10.4795 17.2068C10.4795 20.9182 13.4881 23.9268 17.1995 23.9268C20.9108 23.9268 23.9195 20.9182 23.9195 17.2068C23.9195 13.4955 20.9108 10.4868 17.1995 10.4868ZM20.9531 15.4512L17.0243 19.38L17.0111 19.3932L16.2911 20.1132C16.1747 20.2282 15.9875 20.2282 15.8711 20.1132L13.4423 17.6844C13.3273 17.568 13.3273 17.3808 13.4423 17.2644L14.1707 16.536C14.2868 16.4204 14.4746 16.4204 14.5907 16.536L16.0799 18.0204L19.7999 14.3004C19.9163 14.1854 20.1035 14.1854 20.2199 14.3004L20.9483 15.0288C21.0665 15.1438 21.0692 15.3329 20.9543 15.4512H20.9531Z"/>
</svg>
