 <svg id="icon"   xmlns="http://www.w3.org/2000/svg" viewBox="0 0 24 24">
  <path fill="currentColor" fill-rule="evenodd" clip-rule="evenodd" d="M15.8888 4.94158C15.8888 7.48558 14.1473 10.2193 12 10.2193C9.852 10.2193 8.11125 7.48633 8.1105 4.94158C8.1105 2.39833 9.852 1.00708 12 1.00708C14.1473 1.00708 15.8888 2.39833 15.8888 4.94158ZM12.0403 11.4467C12.3477 11.4512 13.2744 11.4648 14.8418 9.94108C14.8418 9.94108 19.3312 10.2883 19.3312 16.7466L12 23.9073L4.66725 16.7466C4.66725 10.2883 9.15825 9.94108 9.15825 9.94108C10.7256 11.4647 11.6508 11.4512 11.9595 11.4467H11.9595H11.9596H11.9596C11.9745 11.4465 11.988 11.4463 12 11.4463C12.012 11.4463 12.0254 11.4465 12.0403 11.4467ZM6.47025 10.5463C6.26407 10.5939 6.11787 10.592 6.03164 10.5909L6 10.5906C5.99014 10.5906 5.97908 10.5907 5.96684 10.5909C5.7147 10.5946 4.95748 10.6058 3.675 9.35833C3.675 9.35833 0 9.64258 0 14.9278H4.21125C4.578 12.6921 5.51025 11.3458 6.47025 10.5463ZM8.337 8.05933C7.755 8.95408 6.92775 9.58483 6 9.58483C4.24275 9.58483 2.81775 7.34833 2.81775 5.26708C2.81775 3.18583 4.24275 2.04733 6 2.04733C6.774 2.04733 7.47375 2.27983 8.0265 2.70508C7.73775 3.31258 7.563 4.01908 7.563 4.84708C7.563 5.94808 7.8495 7.07833 8.337 8.05933ZM20.325 9.35833C19.0421 10.6055 18.2847 10.5946 18.0329 10.5909L18 10.5906C17.9903 10.5906 17.9794 10.5907 17.9673 10.5909C17.8813 10.5922 17.7355 10.5943 17.5298 10.5463C18.489 11.3458 19.422 12.6921 19.7888 14.9278H24C24 9.64258 20.325 9.35833 20.325 9.35833ZM18 9.58483C17.0715 9.58483 16.2435 8.95408 15.6622 8.05933C16.1512 7.07908 16.437 5.94808 16.437 4.84708C16.437 4.01983 16.2615 3.31333 15.9742 2.70508C16.5247 2.28058 17.2253 2.04733 18 2.04733C19.758 2.04733 21.1815 3.18433 21.1815 5.26633C21.1815 7.34833 19.758 9.58483 18 9.58483Z"/>
</svg>
