 <svg id="icon"   xmlns="http://www.w3.org/2000/svg" viewBox="0 0 24 24">
  <path fill="currentColor" fill-rule="evenodd" clip-rule="evenodd" d="M3.46866 4.10846C3.68424 4.1408 3.70728 4.17536 3.66666 4.38554C3.5733 4.86843 3.49458 5.35215 3.57102 5.84746C3.57924 5.9008 3.54018 5.97298 3.50238 6.01954C3.46287 6.06814 3.41846 6.11321 3.37413 6.1582L3.37413 6.1582C3.3114 6.22186 3.24882 6.28536 3.20052 6.35849C3.02227 6.62851 2.85686 6.90717 2.6916 7.18558L2.69159 7.18559L2.64834 7.25844C2.57814 7.37658 2.532 7.3992 2.41284 7.33518C2.34053 7.29628 2.26939 7.25521 2.19826 7.21414L2.19822 7.21412L2.19818 7.21409C2.16115 7.19271 2.12412 7.17133 2.08692 7.15026C2.02979 7.11795 1.97252 7.08585 1.91261 7.05227L1.91257 7.05225L1.8189 6.99971C1.72482 7.83486 2.31078 9.6032 2.81436 10.029L2.93988 9.76179C2.95316 9.73338 2.96627 9.7049 2.97938 9.67642C3.00731 9.61576 3.03524 9.55511 3.0648 9.4952C3.13746 9.34784 3.18198 9.3368 3.32484 9.40982C3.77862 9.64178 4.23923 9.85479 4.75271 9.92289C4.79741 9.92883 4.85579 9.96681 4.87517 10.006C5.10173 10.4633 5.45219 10.8192 5.81297 11.1669C5.95673 11.3055 5.95793 11.339 5.82047 11.479C5.72113 11.5802 5.6229 11.6825 5.52057 11.7891L5.38247 11.9327C6.46451 12.2789 7.5358 12.2805 8.61502 11.9325C8.56794 11.8835 8.52218 11.8355 8.47718 11.7883L8.47694 11.788L8.4769 11.788C8.3787 11.6849 8.28413 11.5857 8.18746 11.4886C8.0407 11.3412 8.04118 11.3067 8.18602 11.1672C8.5468 10.8195 8.8981 10.4642 9.12321 10.0059C9.14247 9.96675 9.20115 9.92913 9.24591 9.92307C9.74979 9.85461 10.2045 9.65139 10.6495 9.42098C10.8235 9.33086 10.8582 9.33974 10.9443 9.52004C11.0031 9.64309 11.0616 9.76625 11.1238 9.89717L11.1241 9.89778L11.196 10.0492C11.8544 9.12524 12.1818 8.12641 12.1924 6.99239L11.9974 7.10314L11.9972 7.10328C11.8711 7.17494 11.7528 7.2422 11.6342 7.30896C11.4606 7.40664 11.4259 7.39428 11.3346 7.22142C11.1006 6.77837 10.854 6.34433 10.4766 6.00124C10.4434 5.97112 10.4185 5.905 10.4257 5.8615C10.5075 5.36217 10.4278 4.87407 10.3326 4.38674C10.2911 4.17464 10.3144 4.14158 10.5298 4.10858C10.687 4.08451 10.844 4.05848 11.0085 4.03118C11.081 4.01914 11.155 4.00686 11.2312 3.9944C10.5475 3.06115 9.68475 2.42262 8.58808 2.05589L8.62262 2.25841C8.64544 2.39255 8.66693 2.51882 8.68912 2.64498C8.72824 2.86788 8.70784 2.889 8.49064 2.92002C8.00404 2.98963 7.52278 3.07999 7.08238 3.31759C7.03984 3.34051 6.96412 3.34141 6.92164 3.31891C6.472 3.08005 5.98289 2.98591 5.48669 2.91738C5.29595 2.89104 5.27129 2.85846 5.30693 2.66142C5.33104 2.52801 5.35356 2.39434 5.37722 2.25398L5.37723 2.25393L5.37734 2.25324C5.38815 2.18912 5.39919 2.1236 5.41073 2.05607C4.31303 2.42346 3.45324 3.06373 2.76876 3.99548C2.84554 4.00795 2.91974 4.02019 2.99216 4.03215C3.15701 4.05935 3.31267 4.08503 3.46866 4.10846ZM6.68542 8.8923L6.68499 8.8923H6.68498C6.42981 8.89148 6.17467 8.89067 5.91962 8.89478C5.76585 8.89729 5.68009 8.83255 5.63413 8.69389C5.41164 8.02313 5.18825 7.35262 4.96087 6.6835C4.91735 6.55546 4.95341 6.46909 5.06077 6.39423C5.65624 5.97855 6.25114 5.56187 6.84443 5.14304C6.95301 5.06636 7.05027 5.06598 7.1586 5.14248C7.75587 5.56381 8.35463 5.98314 8.95351 6.40228C9.0572 6.47475 9.08433 6.56244 9.04357 6.6825C8.81485 7.35608 8.58863 8.03042 8.36491 8.70558C8.31953 8.84248 8.23229 8.89597 8.08701 8.8939C7.82702 8.89017 7.567 8.89087 7.307 8.89158H7.30699C7.20337 8.89186 7.09976 8.89214 6.99615 8.89214V8.89296C6.89257 8.89296 6.789 8.89263 6.68542 8.8923ZM7.0423 1.00024C3.73734 0.970781 1.02745 3.64099 1.00021 6.95375C0.972967 10.2791 3.64458 12.9757 6.99028 12.9998C10.2528 13.0234 12.9698 10.3466 12.9997 7.07915C13.0303 3.73879 10.3756 1.02994 7.0423 1.00024ZM14 12C12.3431 12 11 13.3431 11 15V24H14.3057L14.3075 21.3402L16.3754 23.5672L15.974 24H16.5863L16.6756 23.9034L16.7649 24H23.999V23.528L23.7107 23.216L23.9985 22.905L23.999 23.1398V22.2365L23.4016 22.8829L20.5113 19.7525L23.7287 16.2679L23.999 16.5604V15.3069L23.7287 15.5986L23.1975 15.0254H23.999V12H14ZM22.3698 23.9986L23.0924 23.216L20.2021 20.0856L16.9757 23.5672L17.3724 23.996L22.3698 23.9986ZM23.4016 23.5522L22.989 23.9991L23.813 23.9974L23.4016 23.5522ZM23.4226 15.9258L22.5822 15.0254L17.8161 15.0344L16.9757 15.9348L20.2021 19.4163L23.4226 15.9258ZM17.2068 15.0254L16.6756 15.5986L16.1443 15.0254H17.2068ZM15.529 15.0254H14.3075L14.3045 18.1648L16.3694 15.9258L15.529 15.0254ZM14.3075 18.8311L16.6756 16.2679L19.893 19.7525L16.6756 23.2341L14.3045 20.6709L14.3075 18.8311Z"/>
</svg>
