 <svg id="icon"   xmlns="http://www.w3.org/2000/svg" viewBox="0 0 24 24">
  <path fill="currentColor" fill-rule="evenodd" clip-rule="evenodd" d="M14.1575 8.93345C17.4249 10.6195 19.5001 9.59649 20.51 8.74412L20.5673 3.49006C19.9284 4.06958 19.0073 4.68715 17.8252 4.92206C16.6512 5.15576 15.4388 4.97103 14.207 4.37551L14.1575 8.93345ZM14.1575 8.93345C14.1575 8.93345 9.9468 5.14933 6.42304 8.27297L6.3708 13.0725C7.34025 12.5964 8.98353 11.9318 10.6009 11.9318C11.7857 11.9318 12.9565 12.2881 13.839 13.3368C13.9236 13.4373 14.0137 13.5272 14.1064 13.6119L14.1575 8.93345ZM17.6066 3.8223C19.5503 3.43576 20.6586 1.7017 20.6695 1.68424L21.7267 0L21.573 14.1176L21.2817 14.2745C21.1348 14.3536 18.8473 15.5635 16.5206 15.5636C15.2344 15.5636 13.9364 15.1939 12.9811 14.0589C10.9012 11.588 6.14135 14.4665 6.09334 14.4958L5.22838 15.0269L5.36038 2.888L5.45541 2.74812C5.49274 2.69309 6.39201 1.39721 8.22292 1.06764C9.84207 0.776606 11.6359 1.32109 13.5569 2.68582C14.9733 3.69248 16.336 4.07467 17.6066 3.8223ZM2.0861 2.67015C2.0924 2.08287 2.57822 1.6076 3.16549 1.61402C3.75288 1.62045 4.22816 2.10627 4.22173 2.69342L3.98185 22.8858C3.97555 23.4731 3.48973 23.9483 2.90246 23.9419C2.31519 23.9355 1.83979 23.4498 1.84622 22.8625L2.0861 2.67015Z"/>
</svg>
