 <svg id="icon"   xmlns="http://www.w3.org/2000/svg" viewBox="0 0 24 24">
  <path fill="currentColor" fill-rule="evenodd" clip-rule="evenodd" d="M13.8568 0.118802C14.1194 0.112884 14.373 0.214668 14.5586 0.400494C14.7442 0.586319 14.8457 0.839999 14.8394 1.10256C14.8457 1.36513 14.7442 1.61881 14.5586 1.80463C14.373 1.99046 14.1194 2.09224 13.8568 2.08633H13.7166V3.80197C16.0757 4.18272 18.2163 5.4071 19.7404 7.24751C21.3158 9.05716 22.1704 11.3831 22.1416 13.7822C22.1524 16.466 21.0903 19.0428 19.1914 20.9394C17.2925 22.836 14.7145 23.8951 12.0307 23.8812C9.34455 23.8952 6.76436 22.8343 4.86494 20.9349C2.96551 19.0354 1.90463 16.4553 1.91863 13.7691C1.89013 11.3698 2.74522 9.04392 4.321 7.23445C5.84465 5.39344 7.98545 4.16892 10.3448 3.7889V2.08514H10.2046C9.94179 2.09139 9.68792 1.98975 9.50206 1.80388C9.3162 1.61802 9.21456 1.36415 9.22081 1.10138C9.21489 0.838804 9.31667 0.585247 9.5025 0.399646C9.68832 0.214044 9.942 0.112567 10.2046 0.118802H13.8568ZM3.99546 13.7822C3.99546 16 4.77724 17.8958 6.34081 19.4697C7.90437 21.0436 9.80021 21.8301 12.0283 21.8293C14.2572 21.8293 16.1531 21.0428 17.7159 19.4697C19.2786 17.8966 20.0616 16.0008 20.0648 13.7822C20.0648 11.5643 19.2826 9.6685 17.7182 8.09464C16.1539 6.52078 14.258 5.73464 12.0307 5.73623C9.8018 5.73623 7.90596 6.52276 6.34318 8.09583C4.78041 9.6689 3.99863 11.5643 3.99784 13.7822H3.99546ZM16.0525 13.2691C16.3839 13.462 16.3839 13.9407 16.0525 14.1335L9.66937 17.847C9.33604 18.0409 8.91794 17.8004 8.91794 17.4148V9.98787C8.91794 9.60223 9.33604 9.36177 9.66937 9.55569L16.0525 13.2691Z"/>
</svg>
