 <svg id="icon"   xmlns="http://www.w3.org/2000/svg" viewBox="0 0 24 24">
  <path fill="currentColor" fill-rule="evenodd" clip-rule="evenodd" d="M13.0429 3.51704C13.1241 3.52989 13.2026 3.5425 13.2792 3.55481L13.2793 3.55482C13.4536 3.58284 13.6183 3.6093 13.7833 3.63344C14.0113 3.66676 14.0357 3.70237 13.9927 3.91892C13.8939 4.41644 13.8107 4.91482 13.8915 5.42514C13.9002 5.4801 13.8589 5.55446 13.8189 5.60244C13.7771 5.6525 13.7302 5.69894 13.6833 5.74529L13.6833 5.74529C13.6169 5.81088 13.5507 5.87631 13.4996 5.95165C13.3111 6.22987 13.1361 6.51698 12.9613 6.80384L12.9155 6.87887C12.8413 7.00059 12.7925 7.0239 12.6664 6.95794C12.59 6.91787 12.5147 6.87555 12.4395 6.83324L12.4394 6.83321C12.4002 6.81117 12.3611 6.78913 12.3217 6.76741C12.2613 6.73417 12.2009 6.70115 12.1376 6.66661L12.1373 6.66645L12.0382 6.61231C11.9387 7.47277 12.5585 9.29469 13.0912 9.73336L13.2239 9.45808C13.2379 9.4289 13.2518 9.39964 13.2656 9.37039L13.2657 9.37014C13.2953 9.30763 13.3248 9.24514 13.3561 9.18342C13.4329 9.03159 13.48 9.02022 13.6311 9.09545C14.1111 9.33444 14.5984 9.5539 15.1415 9.62406C15.1888 9.63019 15.2505 9.66932 15.271 9.70975C15.5107 10.1809 15.8814 10.5475 16.263 10.9058C16.4151 11.0486 16.4164 11.0831 16.271 11.2273C16.1659 11.3316 16.062 11.437 15.9537 11.5468L15.8076 11.6948C16.9522 12.0514 18.0854 12.0531 19.227 11.6946C19.1771 11.644 19.1286 11.5945 19.0809 11.5457L19.0809 11.5457L19.0808 11.5456C18.9769 11.4394 18.8769 11.3372 18.7747 11.2372C18.6195 11.0854 18.62 11.0499 18.7732 10.9061C19.1548 10.5478 19.5264 10.1818 19.7645 9.70956C19.7849 9.66925 19.847 9.63049 19.8943 9.62425C20.4273 9.55372 20.9083 9.34433 21.379 9.10695C21.563 9.0141 21.5997 9.02325 21.6909 9.20901C21.7531 9.33595 21.8151 9.46302 21.8809 9.5981L21.8811 9.59844L21.957 9.75419C22.6535 8.80224 22.9999 7.77314 23.011 6.60477L22.8048 6.71888L22.8047 6.71893C22.6713 6.79279 22.5461 6.86212 22.4206 6.93092C22.237 7.03156 22.2002 7.01883 22.1037 6.84073C21.8562 6.38426 21.5953 5.93706 21.1961 5.58358C21.161 5.55255 21.1347 5.48442 21.1423 5.4396C21.2288 4.92515 21.1445 4.42225 21.0438 3.92016C20.9999 3.70163 21.0245 3.66756 21.2524 3.63356C21.4187 3.60877 21.5847 3.58195 21.7587 3.55382C21.8354 3.54142 21.9137 3.52877 21.9943 3.51592C21.2712 2.55439 20.3585 1.89651 19.1985 1.51868L19.235 1.72755L19.2351 1.72782C19.2592 1.86584 19.2819 1.99578 19.3053 2.12562C19.3467 2.35527 19.3251 2.37703 19.0954 2.40899C18.5807 2.4807 18.0716 2.5738 17.6058 2.81861C17.5608 2.84222 17.4807 2.84315 17.4358 2.81997C16.9601 2.57386 16.4428 2.47687 15.9179 2.40627C15.7161 2.37913 15.69 2.34557 15.7277 2.14255C15.7532 2.00515 15.7771 1.86749 15.8021 1.72294L15.8021 1.72277L15.8021 1.72271C15.8136 1.65642 15.8253 1.58869 15.8375 1.51886C14.6764 1.89738 13.7669 2.55705 13.0429 3.51704ZM17.5084 12.7943C13.9693 12.7694 11.1434 9.99108 11.1722 6.56496C11.201 3.15181 14.0675 0.400682 17.5634 0.431035C21.0893 0.461635 23.8973 3.25257 23.865 6.69416C23.8334 10.0606 20.9593 12.8186 17.5084 12.7943ZM17.151 8.32029L17.1514 8.32029C17.2568 8.32062 17.3622 8.32095 17.4675 8.32095V8.32013C17.573 8.32013 17.6784 8.31985 17.7838 8.31957C18.0483 8.31886 18.3129 8.31816 18.5774 8.32189C18.7252 8.32396 18.814 8.27047 18.8601 8.13357C19.0877 7.45841 19.3179 6.78407 19.5506 6.11049C19.5921 5.99043 19.5645 5.90274 19.459 5.83027C18.8497 5.41113 18.2405 4.9918 17.6328 4.57047C17.5226 4.49397 17.4237 4.49435 17.3132 4.57103C16.7096 4.98986 16.1043 5.40654 15.4985 5.82222C15.3893 5.89708 15.3526 5.98345 15.3968 6.11149C15.6282 6.78061 15.8555 7.45112 16.0818 8.12188C16.1286 8.26054 16.2158 8.32528 16.3723 8.32277C16.6318 8.31866 16.8914 8.31947 17.151 8.32029ZM2.91776 22.4114C2.07143 22.0768 1.09897 21.6924 0.80723 20.8809L1.55294 18.8316L7.67261 21.3335C7.5851 21.5216 7.49438 21.7073 7.39558 21.8876C7.3004 22.061 7.22591 22.2565 7.15136 22.4522C6.97016 22.9277 6.78855 23.4043 6.30825 23.5684C5.63192 23.7994 4.79597 23.342 4.10345 22.963C3.90682 22.8554 3.72175 22.7541 3.55519 22.6767C3.3621 22.587 3.14446 22.501 2.91776 22.4114ZM11.7896 12.1436C11.7906 12.142 11.7916 12.1405 11.7926 12.139C12.1702 12.5837 12.5954 12.9866 13.0626 13.3371C12.9912 13.4398 12.9198 13.5426 12.8485 13.6454C12.5129 14.1285 12.1773 14.6117 11.8401 15.0938C11.2652 15.9158 10.6878 16.7362 10.1066 17.5539C9.89297 17.8544 9.65287 18.1417 9.41271 18.4291C9.10309 18.7995 8.79336 19.1701 8.54012 19.5693C8.33623 19.891 8.16904 20.2369 8.00993 20.5874L1.8329 18.0624L2.37199 16.581C2.44346 15.8045 2.10929 14.9893 1.80775 14.2538C1.75657 14.129 1.70633 14.0064 1.65918 13.8868C1.53313 13.5669 1.39866 13.2498 1.26413 12.9325C1.00856 12.3297 0.7528 11.7265 0.554271 11.1034C0.322959 10.3773 0.236514 9.51986 0.729418 8.87283C1.11961 8.36057 1.74954 8.19456 2.29065 8.58594C2.79942 8.95393 3.09424 9.67124 3.35807 10.3132C3.44585 10.5267 3.53019 10.732 3.61785 10.9132C4.0889 11.8867 4.55556 12.8626 4.99895 13.849L5.00148 13.8546C5.19497 14.2852 5.38287 14.7034 5.71462 14.9835L4.45903 11.5542L4.51317 11.557C4.43077 11.1561 4.42946 10.7551 4.6033 10.3423C4.98197 9.44306 5.37941 8.55147 5.77683 7.65996C6.02234 7.10921 6.26784 6.55848 6.50889 6.00601C6.55064 5.91025 6.59166 5.80083 6.63498 5.68527C6.82072 5.1898 7.04871 4.5816 7.5574 4.45498C8.05327 4.33149 8.72215 4.69603 8.83887 5.20033C8.94431 5.65593 8.63996 6.22617 8.38623 6.70157C8.30534 6.85313 8.2296 6.99504 8.17391 7.12053C7.95053 7.62391 7.73065 8.12884 7.51077 8.6338C7.3557 8.98992 7.20062 9.34605 7.04431 9.70165L7.51726 9.90898C7.68075 9.53729 7.84063 9.16399 8.00052 8.79068C8.3098 8.06859 8.61907 7.34649 8.95441 6.63606C9.20686 6.10088 9.59836 5.30376 10.1944 5.13502C10.0309 5.76353 9.94342 6.42268 9.94342 7.10248C9.94342 7.7355 10.0207 8.35012 10.1632 8.93932C9.92656 9.55881 9.71187 10.1865 9.52723 10.8238C9.81506 10.3982 10.0806 9.97441 10.3323 9.53351C10.5902 10.3191 10.969 11.0496 11.4479 11.7028C11.4325 11.7276 11.4173 11.7525 11.402 11.7774C11.3769 11.8183 11.3519 11.8592 11.3263 11.8997L11.7792 12.1596C11.7826 12.1542 11.7861 12.1489 11.7896 12.1436Z"/>
</svg>
