 <svg id="icon"   xmlns="http://www.w3.org/2000/svg" viewBox="0 0 24 24">
  <path fill="currentColor" fill-rule="evenodd" clip-rule="evenodd" d="M14.5586 0.400616C14.373 0.21479 14.1194 0.113006 13.8568 0.118924H10.2046C9.942 0.112689 9.68832 0.214166 9.5025 0.399768C9.31667 0.585369 9.21489 0.838926 9.22081 1.1015C9.21456 1.36427 9.3162 1.61814 9.50206 1.80401C9.68792 1.98987 9.94179 2.09151 10.2046 2.08526H10.3448V3.78902C7.98545 4.16904 5.84465 5.39356 4.321 7.23457C2.74522 9.04404 1.89013 11.37 1.91863 13.7692C1.90463 16.4554 2.96551 19.0356 4.86494 20.935C6.76436 22.8344 9.34455 23.8953 12.0307 23.8813C14.7145 23.8953 17.2925 22.8361 19.1914 20.9395C21.0903 19.0429 22.1524 16.4661 22.1416 13.7823C22.1704 11.3832 21.3158 9.05728 19.7404 7.24764C18.2163 5.40722 16.0757 4.18284 13.7166 3.80209V2.08645H13.8568C14.1194 2.09237 14.373 1.99058 14.5586 1.80476C14.7442 1.61893 14.8457 1.36525 14.8394 1.10269C14.8457 0.840122 14.7442 0.586441 14.5586 0.400616ZM6.34081 19.4698C4.77724 17.896 3.99546 16.0001 3.99546 13.7823H3.99784C3.99863 11.5645 4.78041 9.66902 6.34318 8.09595C7.90596 6.52288 9.8018 5.73635 12.0307 5.73635C14.258 5.73477 16.1539 6.5209 17.7182 8.09476C19.2826 9.66863 20.0648 11.5645 20.0648 13.7823C20.0616 16.0009 19.2786 17.8967 17.7159 19.4698C16.1531 21.0429 14.2572 21.8294 12.0283 21.8294C9.80021 21.8302 7.90437 21.0437 6.34081 19.4698ZM10.1631 9.14153C10.077 8.5391 10.5445 8.00011 11.153 8.00011H12.847C13.4555 8.00011 13.923 8.5391 13.8369 9.14153L13.1227 14.1415C13.0523 14.6342 12.6304 15.0001 12.1327 15.0001H11.8673C11.3696 15.0001 10.9477 14.6342 10.8773 14.1415L10.1631 9.14153ZM11.9179 19.1187C12.7464 19.1187 13.4179 18.4471 13.4179 17.6187C13.4179 16.7902 12.7464 16.1187 11.9179 16.1187C11.0895 16.1187 10.4179 16.7902 10.4179 17.6187C10.4179 18.4471 11.0895 19.1187 11.9179 19.1187Z"/>
  <mask id="mask0_0_1573" style="mask-type:luminance" maskUnits="userSpaceOnUse" x="1" y="0" width="22" height="24">
    <path fill="currentColor" fill-rule="evenodd" clip-rule="evenodd" d="M14.5586 0.400616C14.373 0.21479 14.1194 0.113006 13.8568 0.118924H10.2046C9.942 0.112689 9.68832 0.214166 9.5025 0.399768C9.31667 0.585369 9.21489 0.838926 9.22081 1.1015C9.21456 1.36427 9.3162 1.61814 9.50206 1.80401C9.68792 1.98987 9.94179 2.09151 10.2046 2.08526H10.3448V3.78902C7.98545 4.16904 5.84465 5.39356 4.321 7.23457C2.74522 9.04404 1.89013 11.37 1.91863 13.7692C1.90463 16.4554 2.96551 19.0356 4.86494 20.935C6.76436 22.8344 9.34455 23.8953 12.0307 23.8813C14.7145 23.8953 17.2925 22.8361 19.1914 20.9395C21.0903 19.0429 22.1524 16.4661 22.1416 13.7823C22.1704 11.3832 21.3158 9.05728 19.7404 7.24764C18.2163 5.40722 16.0757 4.18284 13.7166 3.80209V2.08645H13.8568C14.1194 2.09237 14.373 1.99058 14.5586 1.80476C14.7442 1.61893 14.8457 1.36525 14.8394 1.10269C14.8457 0.840122 14.7442 0.586441 14.5586 0.400616ZM6.34081 19.4698C4.77724 17.896 3.99546 16.0001 3.99546 13.7823H3.99784C3.99863 11.5645 4.78041 9.66902 6.34318 8.09595C7.90596 6.52288 9.8018 5.73635 12.0307 5.73635C14.258 5.73477 16.1539 6.5209 17.7182 8.09476C19.2826 9.66863 20.0648 11.5645 20.0648 13.7823C20.0616 16.0009 19.2786 17.8967 17.7159 19.4698C16.1531 21.0429 14.2572 21.8294 12.0283 21.8294C9.80021 21.8302 7.90437 21.0437 6.34081 19.4698ZM10.1631 9.14153C10.077 8.5391 10.5445 8.00011 11.153 8.00011H12.847C13.4555 8.00011 13.923 8.5391 13.8369 9.14153L13.1227 14.1415C13.0523 14.6342 12.6304 15.0001 12.1327 15.0001H11.8673C11.3696 15.0001 10.9477 14.6342 10.8773 14.1415L10.1631 9.14153ZM11.9179 19.1187C12.7464 19.1187 13.4179 18.4471 13.4179 17.6187C13.4179 16.7902 12.7464 16.1187 11.9179 16.1187C11.0895 16.1187 10.4179 16.7902 10.4179 17.6187C10.4179 18.4471 11.0895 19.1187 11.9179 19.1187Z" />
  </mask>
  <g mask="url(#mask0_0_1573)">
  </g>
</svg>
